Coordinates
nRows=227
nColumns=2
inDegrees=yes
endheader
time	ankle_angle_r	
2.22883	 -0.380072	
2.2621	 -0.380822	
2.29536	 -0.382059	
2.32863	 -0.385210	
2.3619	 -0.392698	
2.39516	 -0.401801	
2.42843	 -0.405312	
2.46169	 -0.401136	
2.49496	 -0.395091	
2.52823	 -0.392949	
2.56149	 -0.393075	
2.59476	 -0.392717	
2.62802	 -0.395066	
2.66129	 -0.400055	
2.69456	 -0.400711	
2.72782	 -0.396862	
2.76109	 -0.395412	
2.79435	 -0.397193	
2.82762	 -0.398718	
2.86089	 -0.396935	
2.89415	 -0.388646	
2.92742	 -0.377199	
2.96069	 -0.370801	
2.99395	 -0.372138	
3.02722	 -0.380368	
3.06048	 -0.394242	
3.09375	 -0.409220	
3.12702	 -0.420458	
3.16028	 -0.427409	
3.19355	 -0.432226	
3.22681	 -0.435228	
3.26008	 -0.434052	
3.29335	 -0.428951	
3.32661	 -0.426390	
3.35988	 -0.431524	
3.39315	 -0.440411	
3.42641	 -0.445773	
3.45968	 -0.443976	
3.49294	 -0.436368	
3.52621	 -0.430350	
3.55948	 -0.431726	
3.59274	 -0.436911	
3.62601	 -0.440604	
3.65927	 -0.441837	
3.69254	 -0.440792	
3.72581	 -0.439055	
3.75907	 -0.438777	
3.79234	 -0.439680	
3.8256	 -0.441420	
3.85887	 -0.443436	
3.89214	 -0.442331	
3.9254	 -0.436870	
3.95867	 -0.429781	
3.99194	 -0.422729	
4.0252	 -0.417945	
4.05847	 -0.418051	
4.09173	 -0.421304	
4.125	 -0.424936	
4.15827	 -0.426186	
4.19153	 -0.420994	
4.2248	 -0.411796	
4.25806	 -0.405608	
4.29133	 -0.402797	
4.3246	 -0.401264	
4.35786	 -0.401357	
4.39113	 -0.401531	
4.4244	 -0.401919	
4.45766	 -0.403273	
4.49093	 -0.399769	
4.52419	 -0.388492	
4.55746	 -0.378113	
4.59073	 -0.379175	
4.62399	 -0.394409	
4.65726	 -0.416131	
4.69052	 -0.430389	
4.72379	 -0.429692	
4.75706	 -0.418811	
4.79032	 -0.407984	
4.82359	 -0.404890	
4.85685	 -0.409134	
4.89012	 -0.414516	
4.92339	 -0.418162	
4.95665	 -0.420910	
4.98992	 -0.422064	
5.02319	 -0.420312	
5.05645	 -0.414934	
5.08972	 -0.408113	
5.12298	 -0.406254	
5.15625	 -0.410596	
5.18952	 -0.413429	
5.22278	 -0.408786	
5.25605	 -0.398343	
5.28931	 -0.388904	
5.32258	 -0.385963	
5.35585	 -0.386643	
5.38911	 -0.384638	
5.42238	 -0.378767	
5.45565	 -0.372114	
5.48891	 -0.368709	
5.52218	 -0.369454	
5.55544	 -0.370989	
5.58871	 -0.370918	
5.62198	 -0.369202	
5.65524	 -0.365699	
5.68851	 -0.362288	
5.72177	 -0.362593	
5.75504	 -0.364348	
5.78831	 -0.361537	
5.82157	 -0.355318	
5.85484	 -0.350710	
5.8881	 -0.349728	
5.92137	 -0.355033	
5.95464	 -0.367914	
5.9879	 -0.383048	
6.02117	 -0.392735	
6.05444	 -0.393053	
6.0877	 -0.387011	
6.12097	 -0.381599	
6.15423	 -0.379484	
6.1875	 -0.380094	
6.22077	 -0.385104	
6.25403	 -0.392330	
6.2873	 -0.394844	
6.32056	 -0.391513	
6.35383	 -0.385993	
6.3871	 -0.380975	
6.42036	 -0.379286	
6.45363	 -0.380926	
6.4869	 -0.382982	
6.52016	 -0.384885	
6.55343	 -0.386355	
6.58669	 -0.386605	
6.61996	 -0.386999	
6.65323	 -0.387907	
6.68649	 -0.389107	
6.71976	 -0.391887	
6.75302	 -0.395824	
6.78629	 -0.400782	
6.81956	 -0.407078	
6.85282	 -0.408866	
6.88609	 -0.400669	
6.91935	 -0.388021	
6.95262	 -0.379714	
6.98589	 -0.378426	
7.01915	 -0.382774	
7.05242	 -0.388833	
7.08569	 -0.392297	
7.11895	 -0.392762	
7.15222	 -0.391441	
7.18548	 -0.388035	
7.21875	 -0.383387	
7.25202	 -0.379830	
7.28528	 -0.379028	
7.31855	 -0.381405	
7.35181	 -0.384855	
7.38508	 -0.386637	
7.41835	 -0.386525	
7.45161	 -0.384897	
7.48488	 -0.382740	
7.51815	 -0.381372	
7.55141	 -0.377679	
7.58468	 -0.370697	
7.61794	 -0.367863	
7.65121	 -0.371487	
7.68448	 -0.374099	
7.71774	 -0.371033	
7.75101	 -0.364224	
7.78427	 -0.358683	
7.81754	 -0.358868	
7.85081	 -0.365773	
7.88407	 -0.379158	
7.91734	 -0.394877	
7.9506	 -0.401945	
7.98387	 -0.396022	
8.01714	 -0.384976	
8.0504	 -0.375421	
8.08367	 -0.369995	
8.11694	 -0.371054	
8.1502	 -0.375464	
8.18347	 -0.376520	
8.21673	 -0.373891	
8.25	 -0.373033	
8.28327	 -0.376566	
8.31653	 -0.380753	
8.3498	 -0.380900	
8.38306	 -0.379721	
8.41633	 -0.383743	
8.4496	 -0.394273	
8.48286	 -0.407956	
8.51613	 -0.417623	
8.5494	 -0.415109	
8.58266	 -0.400436	
8.61593	 -0.381922	
8.64919	 -0.367874	
8.68246	 -0.361814	
8.71573	 -0.362830	
8.74899	 -0.369308	
8.78226	 -0.379631	
8.81552	 -0.388197	
8.84879	 -0.389131	
8.88206	 -0.386138	
8.91532	 -0.388800	
8.94859	 -0.399387	
8.98185	 -0.410970	
9.01512	 -0.415043	
9.04839	 -0.409132	
9.08165	 -0.399175	
9.11492	 -0.391490	
9.14819	 -0.387458	
9.18145	 -0.389500	
9.21472	 -0.399190	
9.24798	 -0.409581	
9.28125	 -0.412240	
9.31452	 -0.405084	
9.34778	 -0.388540	
9.38105	 -0.365443	
9.41431	 -0.342122	
9.44758	 -0.324043	
9.48085	 -0.316225	
9.51411	 -0.321212	
9.54738	 -0.334130	
9.58065	 -0.349110	
9.61391	 -0.362919	
9.64718	 -0.372450	
9.68044	 -0.380208	
9.71371	 -0.393040	
9.74698	 -0.411845	
